PathFileType	4	(X/Y/Z)	/home/nbianco/projects/addbio/data/HamnerRunning2013/Processed/subject10//results/MarkerData/run200.trc
DataRate	CameraRate	NumFrames	NumMarkers	Units	OrigDataRate	OrigDataStartFrame	OrigNumFrames
100	100	10	42	m	100	182	365
Frame#	Time	C7			CLAV			LACR			LASI			LCAL			LFAradius			LFAsuperior			LFAulna			LLEL			LMEL			LMT5			LPSI			LTB1			LTB2			LTB3			LTH1			LTH2			LTH3			LTOE			LUA1			LUA2			LUA3			RACR			RASI			RCAL			RFAradius			RFAsuperior			RFAulna			RLEL			RMEL			RMT5			RPSI			RTB1			RTB2			RTB3			RTH1			RTH2			RTH3			RTOE			RUA1			RUA2			RUA3		
		X1	Y1	Z1	X2	Y2	Z2	X3	Y3	Z3	X4	Y4	Z4	X5	Y5	Z5	X6	Y6	Z6	X7	Y7	Z7	X8	Y8	Z8	X9	Y9	Z9	X10	Y10	Z10	X11	Y11	Z11	X12	Y12	Z12	X13	Y13	Z13	X14	Y14	Z14	X15	Y15	Z15	X16	Y16	Z16	X17	Y17	Z17	X18	Y18	Z18	X19	Y19	Z19	X20	Y20	Z20	X21	Y21	Z21	X22	Y22	Z22	X23	Y23	Z23	X24	Y24	Z24	X25	Y25	Z25	X26	Y26	Z26	X27	Y27	Z27	X28	Y28	Z28	X29	Y29	Z29	X30	Y30	Z30	X31	Y31	Z31	X32	Y32	Z32	X33	Y33	Z33	X34	Y34	Z34	X35	Y35	Z35	X36	Y36	Z36	X37	Y37	Z37	X38	Y38	Z38	X39	Y39	Z39	X40	Y40	Z40	X41	Y41	Z41	X42	Y42	Z42

183	2.96	0.900897	1.51518	-0.313246	1.0331	1.41179	-0.323131	0.924893	1.49129	-0.467411	0.965444	1.00099	-0.434505	1.01401	0.101741	-0.321434	0.921938	1.16801	-0.513108	0.809853	1.23278	-0.574217	0.892255	1.12348	-0.553552	0.698878	1.27107	-0.574131	0.688542	1.25408	-0.502295	1.19028	0.0638975	-0.413748	0.801476	1.04914	-0.37341	1.09427	0.421629	-0.369903	1.04688	0.332685	-0.422735	1.09578	0.232262	-0.34987	0.965426	0.810066	-0.485872	1.04238	0.72142	-0.466578	1.01305	0.602444	-0.44031	1.23047	0.107609	-0.319412	0.815271	1.4224	-0.539237	0.767592	1.38018	-0.479205	0.758235	1.3405	-0.560937	0.972908	1.48157	-0.181108	0.956668	1.00453	-0.195924	0.441409	0.273977	-0.260887	1.09653	1.18934	-0.131701	1.01679	1.19622	-0.0195487	1.09316	1.12505	-0.104258	0.910718	1.21143	0.0267559	0.86402	1.1811	-0.0295743	0.484711	0.0878675	-0.193072	0.797074	1.05024	-0.27332	0.710304	0.393775	-0.225994	0.629325	0.364487	-0.180755	0.572694	0.26698	-0.241244	0.844512	0.768659	-0.143695	0.880872	0.673744	-0.156906	0.793907	0.601606	-0.167184	0.540733	0.0803639	-0.293073	0.949513	1.38774	-0.0730614	0.879989	1.33355	-0.0612138	0.930119	1.27761	-0.0105233
184	2.97	0.901241	1.51118	-0.314948	1.03354	1.40813	-0.323542	0.926685	1.48731	-0.468723	0.967239	0.996974	-0.434861	1.00017	0.102124	-0.31678	0.926406	1.16552	-0.514495	0.813382	1.22873	-0.575713	0.897371	1.12039	-0.554826	0.70192	1.2654	-0.575321	0.691934	1.24833	-0.503429	1.17315	0.0559392	-0.413604	0.80345	1.04406	-0.374812	1.08939	0.414055	-0.366545	1.04017	0.326688	-0.419688	1.08652	0.225112	-0.346091	0.966721	0.804304	-0.485221	1.04346	0.716037	-0.465057	1.01243	0.596983	-0.438156	1.21697	0.0912075	-0.317361	0.817648	1.41785	-0.541135	0.769694	1.37574	-0.481015	0.760815	1.33553	-0.562296	0.972025	1.47763	-0.182048	0.958246	1.00171	-0.19599	0.446023	0.284839	-0.258187	1.09426	1.18549	-0.130938	1.01384	1.19285	-0.0192729	1.09047	1.12132	-0.103377	0.907393	1.20861	0.0261984	0.861056	1.17822	-0.0303469	0.47454	0.0951979	-0.192213	0.798461	1.0458	-0.274244	0.717249	0.389956	-0.224325	0.63501	0.36439	-0.179214	0.574043	0.269629	-0.239783	0.850761	0.76373	-0.14378	0.888804	0.669405	-0.156596	0.803601	0.595624	-0.1661	0.527882	0.0833283	-0.292124	0.947513	1.38407	-0.0740532	0.877341	1.33016	-0.0628396	0.927171	1.27485	-0.0109452
185	2.98	0.901274	1.50611	-0.316666	1.03403	1.40346	-0.323796	0.928502	1.4825	-0.470145	0.968256	0.992605	-0.435193	0.984443	0.102589	-0.313002	0.931581	1.16211	-0.515999	0.817671	1.22351	-0.577758	0.903217	1.11634	-0.556255	0.70565	1.2584	-0.577368	0.695585	1.24134	-0.505297	1.15533	0.0512949	-0.413022	0.804181	1.03822	-0.375468	1.08569	0.406604	-0.363805	1.03434	0.321423	-0.416513	1.0769	0.218762	-0.341652	0.968098	0.798783	-0.484689	1.04466	0.710539	-0.463397	1.01233	0.592048	-0.436701	1.20156	0.0789307	-0.315491	0.820343	1.41192	-0.543502	0.77193	1.36995	-0.483551	0.763961	1.32918	-0.564289	0.970919	1.47298	-0.182796	0.959953	0.997843	-0.196212	0.453072	0.294762	-0.255711	1.09135	1.18018	-0.129805	1.00997	1.18832	-0.0188231	1.08689	1.11621	-0.102045	0.903115	1.20499	0.0255276	0.857204	1.17456	-0.0312972	0.465634	0.102771	-0.191511	0.799398	1.04016	-0.275163	0.725557	0.385579	-0.222548	0.642208	0.36352	-0.177785	0.576987	0.271819	-0.238328	0.857456	0.758077	-0.14356	0.897189	0.664397	-0.155407	0.813825	0.588653	-0.164962	0.517045	0.0869258	-0.291125	0.94482	1.37951	-0.0748729	0.873925	1.32583	-0.0647673	0.923306	1.27115	-0.011445
186	2.99	0.900848	1.50027	-0.318266	1.03466	1.39799	-0.323862	0.930286	1.47706	-0.471812	0.968142	0.988345	-0.435628	0.96731	0.103149	-0.310623	0.937291	1.15773	-0.517528	0.822707	1.21715	-0.580502	0.909739	1.11134	-0.557809	0.710077	1.25018	-0.580214	0.699517	1.23312	-0.507947	1.1372	0.050245	-0.412055	0.803366	1.03198	-0.375262	1.0837	0.401411	-0.361136	1.03095	0.318316	-0.414099	1.06702	0.214699	-0.337291	0.969261	0.794325	-0.48456	1.04591	0.705525	-0.461999	1.01366	0.58863	-0.43637	1.18477	0.0728038	-0.313891	0.823288	1.40469	-0.546273	0.774282	1.36278	-0.486751	0.767613	1.32145	-0.566904	0.969565	1.46806	-0.183219	0.961581	0.993051	-0.19684	0.46179	0.303781	-0.253688	1.08781	1.17342	-0.128264	1.00517	1.18273	-0.0182062	1.08247	1.10973	-0.100191	0.89789	1.20072	0.0246751	0.852566	1.17038	-0.0325512	0.458677	0.110982	-0.190486	0.799594	1.03355	-0.275963	0.735071	0.38113	-0.220809	0.650904	0.362235	-0.176437	0.581393	0.273844	-0.236507	0.864395	0.751751	-0.14322	0.905813	0.658966	-0.153677	0.824566	0.580989	-0.163872	0.509677	0.0914515	-0.289309	0.941374	1.37415	-0.0755295	0.869944	1.32064	-0.0669485	0.918623	1.26653	-0.0120676
187	3	0.900185	1.49437	-0.319744	1.03532	1.39224	-0.323679	0.931916	1.47127	-0.473827	0.96689	0.984617	-0.436524	0.948907	0.103907	-0.309772	0.943377	1.15236	-0.518972	0.828437	1.20966	-0.583879	0.916915	1.10535	-0.559352	0.715239	1.24096	-0.583769	0.703952	1.22376	-0.511469	1.1184	0.0509576	-0.411183	0.801387	1.02554	-0.374369	1.08277	0.399397	-0.358209	1.02951	0.317677	-0.413195	1.05637	0.2132	-0.334246	0.96998	0.791224	-0.484903	1.04737	0.702233	-0.461084	1.0169	0.586985	-0.437072	1.16684	0.071265	-0.312891	0.826486	1.39633	-0.549336	0.776793	1.35424	-0.49053	0.771751	1.31242	-0.57009	0.967865	1.46332	-0.1832	0.962857	0.987743	-0.197983	0.471387	0.312133	-0.252466	1.0837	1.16525	-0.126288	0.999433	1.17622	-0.0174343	1.07727	1.10193	-0.0977306	0.891726	1.19607	0.0235571	0.847226	1.16602	-0.0342465	0.455052	0.120148	-0.188509	0.798899	1.02625	-0.27627	0.74587	0.37704	-0.219314	0.661139	0.361176	-0.175154	0.587406	0.276151	-0.234147	0.871351	0.745117	-0.142968	0.914568	0.65365	-0.151985	0.835918	0.573236	-0.162978	0.50713	0.0969463	-0.285943	0.937272	1.36813	-0.0760192	0.865507	1.31486	-0.069187	0.91322	1.26107	-0.0129286
188	3.01	0.899907	1.48919	-0.32123	1.0358	1.38677	-0.323198	0.933203	1.46547	-0.476053	0.964918	0.981633	-0.438127	0.929537	0.104761	-0.310137	0.949787	1.14599	-0.520214	0.834829	1.20109	-0.587489	0.924759	1.09836	-0.560701	0.721195	1.23097	-0.587921	0.70918	1.21339	-0.515892	1.09881	0.0514546	-0.410923	0.799023	1.01906	-0.372945	1.08153	0.399207	-0.355688	1.02758	0.318203	-0.413803	1.04451	0.213019	-0.333268	0.970091	0.788979	-0.485559	1.04895	0.70146	-0.46073	1.02126	0.586296	-0.438423	1.14805	0.0712816	-0.312725	0.82999	1.38712	-0.552543	0.779512	1.34453	-0.494789	0.776414	1.30233	-0.573717	0.965818	1.45894	-0.182794	0.963566	0.982397	-0.199451	0.481409	0.319969	-0.252283	1.07895	1.15577	-0.123915	0.992784	1.16899	-0.01654	1.07128	1.09288	-0.0946697	0.884676	1.19131	0.0221241	0.84121	1.16181	-0.0364128	0.456255	0.130041	-0.185215	0.79745	1.01856	-0.275654	0.758145	0.373529	-0.218222	0.672893	0.360902	-0.173944	0.59537	0.2791	-0.231659	0.878184	0.738786	-0.142861	0.923589	0.649004	-0.150782	0.847989	0.566071	-0.162342	0.509918	0.103069	-0.281012	0.932912	1.36182	-0.0763528	0.860705	1.30889	-0.0714151	0.907193	1.25501	-0.014165
189	3.02	0.900575	1.48515	-0.322832	1.03593	1.38191	-0.322432	0.934029	1.4599	-0.478089	0.962853	0.979355	-0.440208	0.909764	0.10546	-0.31104	0.956598	1.13874	-0.521119	0.84201	1.19171	-0.590839	0.933306	1.09055	-0.561775	0.728025	1.22049	-0.592552	0.715305	1.20225	-0.521091	1.07882	0.0511249	-0.41138	0.796931	1.01291	-0.371049	1.07867	0.398159	-0.35485	1.0227	0.317894	-0.415178	1.03139	0.212347	-0.333916	0.96952	0.786797	-0.486326	1.04986	0.702422	-0.461098	1.02466	0.585242	-0.440034	1.12878	0.0709175	-0.313211	0.833836	1.37743	-0.5557	0.782428	1.3341	-0.499354	0.781678	1.29164	-0.577574	0.963672	1.45483	-0.18221	0.963621	0.977274	-0.200792	0.491882	0.327153	-0.253047	1.07344	1.14511	-0.121274	0.985262	1.16127	-0.0156114	1.06419	1.08276	-0.0911677	0.876871	1.18671	0.0203731	0.834542	1.15794	-0.0389613	0.463079	0.139863	-0.180742	0.795636	1.01097	-0.274037	0.77196	0.370744	-0.21754	0.68606	0.361528	-0.172847	0.605562	0.282682	-0.229828	0.884874	0.733253	-0.142793	0.933197	0.64528	-0.150153	0.860884	0.559933	-0.161866	0.517502	0.109204	-0.275279	0.928848	1.35575	-0.0765981	0.855721	1.30314	-0.0737813	0.900682	1.24881	-0.0158351
190	3.03	0.902042	1.48207	-0.324389	1.0357	1.37753	-0.321451	0.934509	1.45473	-0.479524	0.961189	0.977578	-0.442125	0.890043	0.105871	-0.311782	0.96399	1.13091	-0.521567	0.850285	1.18209	-0.593626	0.942616	1.08233	-0.562679	0.735859	1.20978	-0.597558	0.72222	1.19067	-0.526829	1.0588	0.0505001	-0.412182	0.795395	1.00774	-0.36895	1.07346	0.394391	-0.356248	1.01402	0.315597	-0.416393	1.01712	0.210172	-0.334952	0.968294	0.784279	-0.487114	1.04893	0.702871	-0.462382	1.02479	0.582893	-0.441599	1.10928	0.0700035	-0.313866	0.837967	1.36771	-0.558539	0.785445	1.32351	-0.503953	0.787608	1.28094	-0.581431	0.961847	1.4508	-0.181638	0.963065	0.972404	-0.201543	0.503183	0.333351	-0.254349	1.06701	1.13351	-0.118542	0.97695	1.1534	-0.0148305	1.05568	1.07184	-0.0874584	0.868509	1.18248	0.0183155	0.827309	1.1545	-0.0417958	0.4752	0.148719	-0.175609	0.79387	1.00416	-0.271896	0.787118	0.369001	-0.217141	0.70056	0.362662	-0.17193	0.617968	0.286445	-0.229087	0.89149	0.72862	-0.142631	0.943625	0.642408	-0.149876	0.874681	0.554883	-0.161363	0.528759	0.114735	-0.269658	0.925406	1.35034	-0.0768674	0.85083	1.29807	-0.0764713	0.893904	1.24304	-0.0178635
191	3.04	0.903375	1.47936	-0.325425	1.0353	1.37331	-0.320366	0.934964	1.44999	-0.480264	0.960088	0.976036	-0.443275	0.870426	0.106077	-0.312049	0.972156	1.12285	-0.521514	0.859911	1.1729	-0.595768	0.952777	1.07424	-0.56365	0.74484	1.19913	-0.602854	0.729834	1.17902	-0.532877	1.03885	0.0501487	-0.412852	0.794406	1.0041	-0.3673	1.06572	0.388172	-0.358941	1.00233	0.311744	-0.416962	1.00174	0.206827	-0.335453	0.966446	0.781513	-0.487921	1.0456	0.700591	-0.464451	1.02066	0.579137	-0.442874	1.08958	0.0691248	-0.314305	0.842227	1.35839	-0.560707	0.788414	1.31319	-0.508299	0.794238	1.27075	-0.585146	0.960643	1.4468	-0.181125	0.962075	0.967875	-0.201529	0.515756	0.338252	-0.255666	1.05969	1.12128	-0.115868	0.967984	1.14571	-0.014451	1.04566	1.0605	-0.0837091	0.859826	1.17874	0.0159454	0.819651	1.15157	-0.0449041	0.491455	0.15605	-0.170404	0.792375	0.998762	-0.270017	0.803304	0.368661	-0.216913	0.716405	0.363698	-0.17128	0.632294	0.289757	-0.229113	0.898123	0.724702	-0.142357	0.954731	0.640251	-0.149673	0.889335	0.550742	-0.160732	0.5427	0.119246	-0.264612	0.922404	1.34576	-0.0772473	0.846235	1.29408	-0.079473	0.887103	1.23819	-0.0200954
192	3.05	0.903613	1.47662	-0.325511	1.03493	1.36917	-0.319315	0.935719	1.44569	-0.480599	0.959429	0.9745	-0.443489	0.850702	0.106268	-0.312008	0.981186	1.11495	-0.521013	0.870799	1.16465	-0.597314	0.963902	1.06684	-0.564905	0.755013	1.18881	-0.60833	0.73821	1.16768	-0.539061	1.01881	0.0500956	-0.413196	0.793821	1.00206	-0.366726	1.05571	0.381315	-0.361285	0.988906	0.307708	-0.417019	0.985374	0.203404	-0.335409	0.963868	0.778685	-0.488717	1.04043	0.69497	-0.466718	1.01311	0.574477	-0.443726	1.06962	0.0685961	-0.314484	0.846434	1.34976	-0.56184	0.791244	1.30328	-0.512249	0.801562	1.26133	-0.588693	0.959993	1.44302	-0.18064	0.960999	0.964067	-0.201034	0.529827	0.341674	-0.256602	1.05163	1.1088	-0.11333	0.958563	1.13851	-0.0146756	1.03439	1.0491	-0.0800098	0.851056	1.17567	0.0132493	0.811669	1.14934	-0.0483125	0.510502	0.161656	-0.165543	0.791203	0.995147	-0.269016	0.820308	0.369709	-0.216846	0.733597	0.364226	-0.170955	0.648183	0.292199	-0.229228	0.904805	0.721373	-0.14208	0.965991	0.638847	-0.149386	0.904584	0.547363	-0.160093	0.558867	0.122544	-0.260136	0.919289	1.34192	-0.0777423	0.841906	1.29134	-0.0825255	0.880436	1.23447	-0.0224108
